# Blender v2.93.4 OBJ File: ''
# www.blender.org
mtllib chao.mtl
o Cube.038_Cube.020
v -1.740232 -0.172847 5.154840
v 3.042427 -0.172845 -8.395105
v 15.049979 -0.172847 8.395105
v 15.049979 -0.026996 8.395105
v 15.049979 -0.026994 -8.395105
v 3.042427 -0.026994 -8.395105
v -1.740232 -0.172847 8.395105
v -1.740232 -0.026996 7.630703
v -1.740232 -0.172847 7.630703
v -1.740232 -0.172845 -8.395105
v -0.224524 -0.026994 -8.395105
v -0.224524 -0.172845 -8.395105
v 15.049979 -0.172845 -8.395105
v -1.740232 -0.026996 8.395105
v -1.740232 -0.026994 -8.395105
v -1.740232 -0.026996 5.154840
vt 0.896568 0.000000
vt 4.645779 1.323341
vt 0.000000 4.645779
vt 0.000000 4.645779
vt 4.645779 4.645779
vt 4.645779 1.323341
vt 0.000000 0.000000
vt 0.211507 0.000000
vt 0.211507 0.000000
vt 4.645779 0.000001
vt 4.645779 0.419390
vt 4.645779 0.419390
vt 4.645779 4.645779
vt 0.000000 0.000000
vt 4.645779 0.000001
vt 0.896568 0.000000
vn -0.0000 -1.0000 -0.0000
vn -0.0000 1.0000 0.0000
vn -1.0000 0.0000 0.0000
vn 0.0000 0.0000 -1.0000
vn 1.0000 0.0000 0.0000
vn 0.0000 0.0000 1.0000
usemtl Materiais.001
s 1
f 1/1/1 2/2/1 3/3/1
f 4/4/2 5/5/2 6/6/2
f 7/7/3 8/8/3 9/9/3
f 10/10/4 11/11/4 12/12/4
f 13/13/5 4/4/5 3/3/5
f 3/3/6 14/14/6 7/7/6
f 2/2/4 5/5/4 13/13/4
f 12/12/4 6/6/4 2/2/4
f 1/1/3 15/15/3 10/10/3
f 9/9/3 16/16/3 1/1/3
f 1/1/1 10/10/1 12/12/1
f 2/2/1 13/13/1 3/3/1
f 1/1/1 12/12/1 2/2/1
f 3/3/1 7/7/1 9/9/1
f 9/9/1 1/1/1 3/3/1
f 11/11/2 15/15/2 16/16/2
f 8/8/2 14/14/2 4/4/2
f 11/11/2 16/16/2 6/6/2
f 16/16/2 8/8/2 4/4/2
f 6/6/2 16/16/2 4/4/2
f 7/7/3 14/14/3 8/8/3
f 10/10/4 15/15/4 11/11/4
f 13/13/5 5/5/5 4/4/5
f 3/3/6 4/4/6 14/14/6
f 2/2/4 6/6/4 5/5/4
f 12/12/4 11/11/4 6/6/4
f 1/1/3 16/16/3 15/15/3
f 9/9/3 8/8/3 16/16/3
